<?xml version="1.0" encoding="UTF-8"?>
<svg xmlns="http://www.w3.org/2000/svg" viewBox="0 0 2048 2048">
  <defs>
    <style>
      .cls-1 {
        fill: #aa211e;
      }

      .cls-2 {
        fill: #fff;
      }

      .cls-3 {
        fill: none;
        stroke: #aa211e;
        stroke-miterlimit: 10;
        stroke-width: 45px;
      }
    </style>
  </defs>
  <g id="Layer_5" data-name="Layer 5">
    <rect class="cls-1" x="435.82" y="435.82" width="1176.35" height="1176.35" rx="179.76" ry="179.76"/>
  </g>
  <g id="Layer_1" data-name="Layer 1">
    <rect class="cls-1" x="435.82" y="435.82" width="1176.35" height="1176.35" rx="179.76" ry="179.76"/>
    <g>
      <path class="cls-2" d="M1023.1,1134.7c-61.04,0-110.7-49.66-110.7-110.7s49.66-110.7,110.7-110.7,110.7,49.66,110.7,110.7-49.66,110.7-110.7,110.7Z"/>
      <path class="cls-2" d="M1023.1,935.8c48.63,0,88.2,39.57,88.2,88.2s-39.56,88.2-88.2,88.2-88.2-39.57-88.2-88.2,39.57-88.2,88.2-88.2M1023.1,890.8c-73.56,0-133.2,59.63-133.2,133.2s59.63,133.2,133.2,133.2,133.2-59.63,133.2-133.2-59.63-133.2-133.2-133.2h0Z"/>
    </g>
    <path class="cls-3" d="M910.75,1275.75c-65.72-8.18-174.73-260.91-174.73-328.85,0-73.56,59.63-133.2,133.2-133.2s196.75-134.67,62.63,91.05c-17.35,29.2-26.17,105.81,12.89,139.13,45.86,39.11,71.62-52.2,132.32,47.34,2.93,4.8,44.52,155.03,20.64,171.17"/>
    <path class="cls-3" d="M1435.35,907.17c-28.29-3.52,84.11,56.32,61.14,41.94-8.04-5.03-262.86,220.72-316.98,102.31-5.57-12.19-155.51,62.6-29.94-307.55,23.63-69.66-26.06-164.28,47.51-164.28s156.1,267.74,156.1,341.3-59.63,133.2-133.2,133.2c-5.63,0-11.17-.35-16.61-1.03"/>
    <path class="cls-2" d="M1023.1,846.73c65.09,0,128.13,5.62,187.38,16.7,56.44,10.56,106.86,25.55,149.84,44.56,40.18,17.77,72.47,38.72,93.4,60.6,17.93,18.74,27.02,37.39,27.02,55.41s-9.09,36.67-27.02,55.41c-20.93,21.88-53.22,42.83-93.4,60.6-42.99,19.01-93.4,34-149.84,44.56-59.25,11.08-122.29,16.7-187.38,16.7s-128.13-5.62-187.38-16.7c-56.44-10.56-106.86-25.55-149.84-44.56-40.18-17.77-72.47-38.72-93.4-60.6-17.93-18.74-27.02-37.39-27.02-55.41s9.09-36.67,27.02-55.41c20.93-21.88,53.22-42.83,93.4-60.6,42.99-19.01,93.4-34,149.84-44.56,59.25-11.08,122.29-16.7,187.38-16.7M1023.1,801.73c-277.6,0-502.64,99.51-502.64,222.27s225.04,222.27,502.64,222.27,502.64-99.51,502.64-222.27-225.04-222.27-502.64-222.27h0Z"/>
    <path class="cls-2" d="M1023.1,849.55c46.6,0,90.41,18.15,123.36,51.1,32.95,32.95,51.1,76.76,51.1,123.36s-18.15,90.41-51.1,123.36c-32.95,32.95-76.76,51.1-123.36,51.1s-90.41-18.15-123.36-51.1c-32.95-32.95-51.1-76.76-51.1-123.36s18.15-90.41,51.1-123.36c32.95-32.95,76.76-51.1,123.36-51.1M1023.1,804.55c-121.2,0-219.45,98.25-219.45,219.45s98.25,219.45,219.45,219.45,219.45-98.25,219.45-219.45-98.25-219.45-219.45-219.45h0Z"/>
  </g>
</svg>